<svg width="2027" height="437" viewBox="0 0 2027 437" fill="none" xmlns="http://www.w3.org/2000/svg">
<path d="M718.6 218.5C718.6 186 677.9 155.2 615.5 136.1C629.9 72.5 623.5 21.9 595.3 5.7C588.8 1.9 581.2 0.0999985 572.9 0.0999985V22.4C577.5 22.4 581.2 23.3 584.3 25C597.9 32.8 603.8 62.5 599.2 100.7C598.1 110.1 596.3 120 594.1 130.1C574.5 125.3 553.1 121.6 530.6 119.2C517.1 100.7 503.1 83.9 489 69.2C521.6 38.9 552.2 22.3 573 22.3V0C545.5 0 509.5 19.6 473.1 53.6C436.7 19.8 400.7 0.400002 373.2 0.400002V22.7C393.9 22.7 424.6 39.2 457.2 69.3C443.2 84 429.2 100.7 415.9 119.2C393.3 121.6 371.9 125.3 352.3 130.2C350 120.2 348.3 110.5 347.1 101.2C342.4 63 348.2 33.3 361.7 25.4C364.7 23.6 368.6 22.8 373.2 22.8V0.5C364.8 0.5 357.2 2.3 350.6 6.1C322.5 22.3 316.2 72.8 330.7 136.2C268.5 155.4 228 186.1 228 218.5C228 251 268.7 281.8 331.1 300.9C316.7 364.5 323.1 415.1 351.3 431.3C357.8 435.1 365.4 436.9 373.8 436.9C401.3 436.9 437.3 417.3 473.7 383.3C510.1 417.1 546.1 436.5 573.6 436.5C582 436.5 589.6 434.7 596.2 430.9C624.3 414.7 630.6 364.2 616.1 300.8C678.1 281.7 718.6 250.9 718.6 218.5ZM588.4 151.8C584.7 164.7 580.1 178 574.9 191.3C570.8 183.3 566.5 175.3 561.8 167.3C557.2 159.3 552.3 151.5 547.4 143.9C561.6 146 575.3 148.6 588.4 151.8ZM542.6 258.3C534.8 271.8 526.8 284.6 518.5 296.5C503.6 297.8 488.5 298.5 473.3 298.5C458.2 298.5 443.1 297.8 428.3 296.6C420 284.7 411.9 272 404.1 258.6C396.5 245.5 389.6 232.2 383.3 218.8C389.5 205.4 396.5 192 404 178.9C411.8 165.4 419.8 152.6 428.1 140.7C443 139.4 458.1 138.7 473.3 138.7C488.4 138.7 503.5 139.4 518.3 140.6C526.6 152.5 534.7 165.2 542.5 178.6C550.1 191.7 557 205 563.3 218.4C557 231.8 550.1 245.2 542.6 258.3ZM574.9 245.3C580.3 258.7 584.9 272.1 588.7 285.1C575.6 288.3 561.8 291 547.5 293.1C552.4 285.4 557.3 277.5 561.9 269.4C566.5 261.4 570.8 253.3 574.9 245.3ZM473.5 352C464.2 342.4 454.9 331.7 445.7 320C454.7 320.4 463.9 320.7 473.2 320.7C482.6 320.7 491.9 320.5 501 320C492 331.7 482.7 342.4 473.5 352ZM399.1 293.1C384.9 291 371.2 288.4 358.1 285.2C361.8 272.3 366.4 259 371.6 245.7C375.7 253.7 380 261.7 384.7 269.7C389.4 277.7 394.2 285.5 399.1 293.1ZM473 85C482.3 94.6 491.6 105.3 500.8 117C491.8 116.6 482.6 116.3 473.3 116.3C463.9 116.3 454.6 116.5 445.5 117C454.5 105.3 463.8 94.6 473 85ZM399 143.9C394.1 151.6 389.2 159.5 384.6 167.6C380 175.6 375.7 183.6 371.6 191.6C366.2 178.2 361.6 164.8 357.8 151.8C370.9 148.7 384.7 146 399 143.9ZM308.5 269.1C273.1 254 250.2 234.2 250.2 218.5C250.2 202.8 273.1 182.9 308.5 167.9C317.1 164.2 326.5 160.9 336.2 157.8C341.9 177.4 349.4 197.8 358.7 218.7C349.5 239.5 342.1 259.8 336.5 279.3C326.6 276.2 317.2 272.8 308.5 269.1ZM362.3 412C348.7 404.2 342.8 374.5 347.4 336.3C348.5 326.9 350.3 317 352.5 306.9C372.1 311.7 393.5 315.4 416 317.8C429.5 336.3 443.5 353.1 457.6 367.8C425 398.1 394.4 414.7 373.6 414.7C369.1 414.6 365.3 413.7 362.3 412ZM599.5 335.8C604.2 374 598.4 403.7 584.9 411.6C581.9 413.4 578 414.2 573.4 414.2C552.7 414.2 522 397.7 489.4 367.6C503.4 352.9 517.4 336.2 530.7 317.7C553.3 315.3 574.7 311.6 594.3 306.7C596.6 316.8 598.4 326.5 599.5 335.8ZM638 269.1C629.4 272.8 620 276.1 610.3 279.2C604.6 259.6 597.1 239.2 587.8 218.3C597 197.5 604.4 177.2 610 157.7C619.9 160.8 629.3 164.2 638.1 167.9C673.5 183 696.4 202.8 696.4 218.5C696.3 234.2 673.4 254.1 638 269.1Z" fill="#61DAFB"/>
<path d="M473.2 264.2C498.439 264.2 518.9 243.739 518.9 218.5C518.9 193.261 498.439 172.8 473.2 172.8C447.961 172.8 427.5 193.261 427.5 218.5C427.5 243.739 447.961 264.2 473.2 264.2Z" fill="#61DAFB"/>
<path d="M823 218.013V427.013H1241.01V9H823V218.013ZM1159.86 201.358C1170.48 204.01 1178.57 208.726 1186.01 216.419C1189.86 220.534 1195.56 228.032 1196.03 229.822C1196.16 230.344 1177.98 242.557 1166.96 249.396C1166.57 249.657 1164.97 247.939 1163.17 245.281C1157.8 237.444 1152.16 234.067 1143.53 233.473C1130.86 232.61 1122.63 239.246 1122.76 250.323C1122.76 253.576 1123.22 255.496 1124.55 258.161C1127.34 263.934 1132.52 267.383 1148.77 274.423C1178.7 287.29 1191.5 295.781 1199.45 307.863C1208.34 321.331 1210.34 342.832 1204.3 358.82C1197.67 376.206 1181.21 388.015 1158.06 391.934C1150.89 393.194 1133.91 392.998 1126.21 391.607C1109.43 388.622 1093.5 380.328 1083.68 369.447C1079.83 365.201 1072.34 354.118 1072.8 353.314C1073 353.053 1074.73 351.989 1076.65 350.859L1092.18 341.911L1104.2 334.942L1106.72 338.665C1110.23 344.04 1117.93 351.401 1122.58 353.857C1135.91 360.891 1154.23 359.891 1163.25 351.799C1167.1 348.285 1168.69 344.634 1168.69 339.259C1168.69 334.413 1168.1 332.29 1165.57 328.646C1162.32 324.009 1155.68 320.09 1136.83 311.926C1115.27 302.638 1105.98 296.865 1097.49 287.708C1092.58 282.398 1087.93 273.907 1086.01 266.808C1084.41 260.904 1084.01 246.104 1085.28 240.134C1089.72 219.234 1105.44 204.768 1128.14 200.457C1135.51 199.066 1152.63 199.595 1159.86 201.385L1159.86 201.358ZM1061.73 218.797L1061.86 235.909H1007.46V390.503H968.973V235.909H914.568V219.123L915.025 201.881C915.221 201.62 948.335 201.489 988.476 201.554L1061.53 201.75L1061.73 218.797Z" fill="#007ACC"/>
<path d="M1659.57 303.183C1676.33 301.447 1689.04 286.996 1688.46 269.653C1687.88 252.311 1673.44 238.437 1656.11 238.437H1654.95C1637.04 239.015 1623.18 254.045 1623.75 271.965C1624.33 280.637 1627.8 288.151 1633 293.354C1613.35 332.087 1583.31 360.412 1538.25 384.114C1507.63 400.3 1475.85 406.081 1444.08 402.036C1418.08 398.567 1397.86 387.006 1385.15 367.927C1366.66 339.602 1364.93 308.962 1380.53 278.325C1391.51 256.357 1408.84 240.17 1419.81 232.077C1417.5 224.562 1414.04 211.845 1412.3 202.596C1328.53 263.295 1337.2 345.383 1362.62 384.114C1381.68 413.02 1420.39 430.94 1463.14 430.94C1474.7 430.94 1486.25 429.783 1497.81 426.894C1571.76 412.441 1627.8 368.506 1659.57 303.183V303.183ZM1761.26 231.5C1717.35 180.05 1652.64 151.725 1578.69 151.725H1569.45C1564.25 141.319 1553.27 134.381 1541.14 134.381H1539.98C1522.07 134.96 1508.21 149.989 1508.79 167.911C1509.36 185.253 1523.81 199.127 1541.14 199.127H1542.29C1555 198.549 1565.98 190.456 1570.6 179.472H1581C1624.91 179.472 1666.51 192.189 1704.06 217.047C1732.95 236.125 1753.75 260.983 1765.3 291.042C1775.12 315.322 1774.54 339.023 1764.14 359.257C1747.97 389.895 1720.81 406.66 1684.99 406.66C1661.88 406.66 1639.93 399.722 1628.38 394.519C1622.02 400.3 1610.47 409.549 1602.38 415.332C1627.22 426.892 1652.64 433.252 1676.91 433.252C1732.37 433.252 1773.39 402.612 1788.99 371.975C1805.74 338.445 1804.58 280.637 1761.26 231.5V231.5ZM1467.77 313.008C1468.34 330.351 1482.79 344.224 1500.12 344.224H1501.28C1519.19 343.647 1533.05 328.616 1532.47 310.696C1531.9 293.352 1517.45 279.48 1500.12 279.48H1498.96C1497.81 279.48 1496.07 279.48 1494.92 280.056C1471.23 240.747 1461.41 197.97 1464.88 151.723C1467.19 117.038 1478.74 86.9767 1498.96 62.1184C1515.72 40.7292 1548.07 30.3238 1570.03 29.7471C1631.26 28.5901 1657.26 104.897 1659 135.536C1666.51 137.27 1679.22 141.317 1687.88 144.208C1680.95 50.5596 1623.18 2 1567.72 2C1515.72 2 1467.77 39.5758 1448.7 95.0717C1422.13 169.066 1439.46 240.17 1471.81 296.245C1468.92 300.29 1467.19 306.65 1467.77 313.01V313.008Z" fill="#764ABC"/>
<path d="M1999.72 96.1125C1994.76 128.45 1989.8 135.913 1989.8 168.25C1989.8 188.15 2027 205.563 2027 205.563V230.438C2027 230.438 1989.8 247.85 1989.8 267.75C1989.8 300.088 1994.76 307.55 1999.72 339.887C2007.16 392.125 1979.88 417 1955.08 417C1930.28 417 1903 417 1903 417V367.25C1903 367.25 1947.64 372.225 1947.64 342.375C1947.64 319.988 1942.68 319.988 1937.72 270.238C1935.24 247.85 1950.12 230.438 1965 218C1950.12 205.563 1935.24 190.638 1937.72 168.25C1942.68 118.5 1947.64 118.5 1947.64 96.1125C1947.64 66.2625 1903 68.75 1903 68.75V19C1903 19 1927.8 19 1955.08 19C1982.36 19 2007.16 43.875 1999.72 96.1125Z" fill="#444444"/>
<path d="M27.28 96.1125C32.24 128.45 37.2 135.913 37.2 168.25C37.2 188.15 0 205.562 0 205.562V230.438C0 230.438 37.2 247.85 37.2 267.75C37.2 300.087 32.24 307.55 27.28 339.887C19.84 392.125 47.12 417 71.92 417C96.72 417 124 417 124 417V367.25C124 367.25 79.36 372.225 79.36 342.375C79.36 319.988 84.32 319.988 89.28 270.238C91.76 247.85 76.88 230.438 62 218C76.88 205.562 91.76 190.637 89.28 168.25C81.84 118.5 79.36 118.5 79.36 96.1125C79.36 66.2625 124 68.75 124 68.75V19C124 19 99.2 19 71.92 19C44.64 19 19.84 43.875 27.28 96.1125V96.1125Z" fill="#444444"/>
</svg>
