<?xml version="1.0" standalone="no"?>
<!DOCTYPE svg PUBLIC "-//W3C//DTD SVG 20010904//EN"
 "http://www.w3.org/TR/2001/REC-SVG-20010904/DTD/svg10.dtd">
<svg version="1.0" xmlns="http://www.w3.org/2000/svg"
 width="512.000000pt" height="512.000000pt" viewBox="0 0 512.000000 512.000000"
 preserveAspectRatio="xMidYMid meet">
<metadata>
Created by potrace 1.11, written by Peter Selinger 2001-2013
</metadata>
<g transform="translate(0.000000,512.000000) scale(0.100000,-0.100000)"
fill="#000000" stroke="none">
<path d="M0 2560 l0 -2560 2560 0 2560 0 0 2560 0 2560 -2560 0 -2560 0 0
-2560z m1150 771 l0 -108 -50 -6 c-99 -12 -150 -55 -150 -127 0 -18 12 -100
26 -185 31 -186 27 -208 -48 -290 l-51 -56 40 -42 c63 -65 78 -101 76 -182 -1
-38 -9 -108 -18 -155 -29 -157 -30 -191 -4 -224 28 -36 76 -56 134 -56 l45 0
0 -111 0 -110 -144 3 c-142 3 -145 3 -187 33 -95 67 -120 193 -80 403 12 60
22 142 24 180 3 86 -11 109 -100 167 l-62 40 0 55 0 55 54 33 c30 18 67 49 82
69 25 33 28 43 25 109 -1 39 -11 116 -22 169 -24 117 -26 244 -5 307 18 51 65
104 110 124 20 9 77 13 168 14 l137 0 0 -109z m3154 79 c23 -16 47 -46 66 -84
26 -51 30 -70 30 -142 0 -46 -9 -130 -20 -187 -11 -57 -21 -136 -23 -175 -3
-86 11 -109 100 -167 l62 -40 0 -55 0 -55 -62 -40 c-89 -59 -103 -81 -99 -170
1 -40 11 -117 22 -170 23 -111 25 -243 6 -298 -20 -56 -64 -107 -110 -128 -33
-15 -66 -19 -173 -19 l-133 0 0 110 0 110 45 0 c58 0 106 20 134 56 26 33 25
67 -4 224 -9 47 -17 117 -18 155 -2 81 13 117 76 182 l40 42 -51 56 c-70 76
-77 107 -57 248 8 62 20 130 25 152 30 126 -12 187 -140 202 l-50 6 0 109 0
110 148 -4 c139 -3 151 -5 186 -28z m-2313 -438 c108 -43 163 -126 162 -247
-1 -42 -7 -86 -17 -110 -19 -46 -68 -100 -109 -121 l-28 -15 96 -184 96 -185
-115 0 -116 0 -80 160 -81 161 -57 -3 -57 -3 -3 -157 -3 -158 -104 0 -105 0 0
446 0 446 233 -4 c211 -3 237 -6 288 -26z m827 -6 c112 -52 158 -131 150 -260
-6 -87 -37 -149 -96 -193 -20 -15 -41 -30 -45 -34 -5 -4 32 -85 82 -181 50
-96 91 -178 91 -181 0 -4 -51 -7 -112 -7 l-113 0 -80 158 -80 157 -57 3 -58 3
0 -161 0 -160 -105 0 -105 0 0 446 0 446 233 -4 c231 -3 232 -3 295 -32z m952
-46 l0 -79 -132 -3 -133 -3 -3 -362 -2 -363 -105 0 -105 0 -2 363 -3 362 -127
3 -128 3 0 79 0 80 370 0 370 0 0 -80z"/>
<path d="M1688 2834 c-5 -4 -8 -61 -8 -127 l0 -119 101 4 c99 3 101 3 130 36
23 26 29 42 29 78 0 52 -21 98 -52 115 -26 14 -190 25 -200 13z"/>
<path d="M2500 2715 l0 -125 85 0 c59 0 96 5 116 16 40 20 63 74 54 129 -11
75 -65 104 -192 105 l-63 0 0 -125z"/>
</g>
</svg>
